<mxfile host="Electron" modified="2024-05-28T06:53:10.856Z" agent="Mozilla/5.0 (Windows NT 10.0; Win64; x64) AppleWebKit/537.36 (KHTML, like Gecko) draw.io/24.0.4 Chrome/120.0.6099.109 Electron/28.1.0 Safari/537.36" etag="aMKTix49RqA1Zo4nmK6I" version="24.0.4" type="device">
  <diagram name="Page-1" id="0EYaEhoW5f1kIf9o_XHF">
    <mxGraphModel dx="2058" dy="1180" grid="1" gridSize="10" guides="1" tooltips="1" connect="1" arrows="1" fold="1" page="1" pageScale="1" pageWidth="850" pageHeight="1100" math="0" shadow="0">
      <root>
        <mxCell id="0" />
        <mxCell id="1" parent="0" />
        <mxCell id="VB43u5993AOcRyc0JKnX-6" style="edgeStyle=orthogonalEdgeStyle;rounded=0;orthogonalLoop=1;jettySize=auto;html=1;" edge="1" parent="1" source="VB43u5993AOcRyc0JKnX-1" target="VB43u5993AOcRyc0JKnX-3">
          <mxGeometry relative="1" as="geometry" />
        </mxCell>
        <mxCell id="VB43u5993AOcRyc0JKnX-1" value="Generate Ids" style="rounded=1;whiteSpace=wrap;html=1;" vertex="1" parent="1">
          <mxGeometry x="40" y="280" width="120" height="60" as="geometry" />
        </mxCell>
        <mxCell id="VB43u5993AOcRyc0JKnX-9" style="edgeStyle=orthogonalEdgeStyle;rounded=0;orthogonalLoop=1;jettySize=auto;html=1;" edge="1" parent="1" source="VB43u5993AOcRyc0JKnX-2" target="VB43u5993AOcRyc0JKnX-4">
          <mxGeometry relative="1" as="geometry" />
        </mxCell>
        <mxCell id="VB43u5993AOcRyc0JKnX-2" value="Restore &amp;amp; Build XUnit Project" style="rounded=1;whiteSpace=wrap;html=1;" vertex="1" parent="1">
          <mxGeometry x="40" y="400" width="120" height="60" as="geometry" />
        </mxCell>
        <mxCell id="VB43u5993AOcRyc0JKnX-7" style="edgeStyle=orthogonalEdgeStyle;rounded=0;orthogonalLoop=1;jettySize=auto;html=1;" edge="1" parent="1" source="VB43u5993AOcRyc0JKnX-3" target="VB43u5993AOcRyc0JKnX-4">
          <mxGeometry relative="1" as="geometry" />
        </mxCell>
        <mxCell id="VB43u5993AOcRyc0JKnX-3" value="State Setup" style="rounded=1;whiteSpace=wrap;html=1;" vertex="1" parent="1">
          <mxGeometry x="240" y="280" width="120" height="60" as="geometry" />
        </mxCell>
        <mxCell id="VB43u5993AOcRyc0JKnX-8" style="edgeStyle=orthogonalEdgeStyle;rounded=0;orthogonalLoop=1;jettySize=auto;html=1;" edge="1" parent="1" source="VB43u5993AOcRyc0JKnX-4" target="VB43u5993AOcRyc0JKnX-5">
          <mxGeometry relative="1" as="geometry" />
        </mxCell>
        <mxCell id="VB43u5993AOcRyc0JKnX-4" value="Run Selenium Scripts&lt;span style=&quot;white-space: pre;&quot;&gt;&#x9;&lt;/span&gt;" style="rounded=1;whiteSpace=wrap;html=1;" vertex="1" parent="1">
          <mxGeometry x="440" y="280" width="120" height="60" as="geometry" />
        </mxCell>
        <mxCell id="VB43u5993AOcRyc0JKnX-5" value="State Teardown" style="rounded=1;whiteSpace=wrap;html=1;" vertex="1" parent="1">
          <mxGeometry x="640" y="280" width="120" height="60" as="geometry" />
        </mxCell>
      </root>
    </mxGraphModel>
  </diagram>
</mxfile>
